<?xml version="1.0" encoding="utf-8"?>
<!-- Generator: Adobe Illustrator 27.3.1, SVG Export Plug-In . SVG Version: 6.00 Build 0)  -->
<svg version="1.1" id="Layer_2" xmlns="http://www.w3.org/2000/svg" xmlns:xlink="http://www.w3.org/1999/xlink" x="0px" y="0px"
	 viewBox="0 0 213.4 213.4" style="enable-background:new 0 0 213.4 213.4;" xml:space="preserve">
<style type="text/css">
	.st0{fill:#FFFFFF;}
</style>
<g id="Layer_1-2">
	<g>
		<g>
			<g>
				<path class="st0" d="M110.7,145.2h-7.3c-21.6,0-39.2-17.3-39.2-38.5s17.6-38.5,39.2-38.5h7.3c1.9,0,3.5-1.6,3.5-3.5
					s-1.6-3.5-3.5-3.5h-7.3c-24.3,0-44.2,18.6-46.1,42H46.9V64.9c0-2-1.6-3.7-3.5-3.7s-3.5,1.7-3.5,3.7v83.6c0,2,1.6,3.7,3.5,3.7
					s3.5-1.6,3.5-3.7v-38.3h10.4c1.8,23.5,21.8,42,46.1,42l0,0h7.3c1.9,0,3.5-1.6,3.5-3.5S112.7,145.2,110.7,145.2L110.7,145.2z"/>
				<path class="st0" d="M103.4,154.1c-12.2,0-23.8-4.5-32.7-12.7c-8.5-7.8-13.8-18.1-15-29.3h-6.8v36.4c0,3.1-2.4,5.6-5.4,5.6
					s-5.4-2.5-5.4-5.6V64.9c0-3.1,2.4-5.6,5.4-5.6s5.4,2.5,5.4,5.6v36.4h6.8c1.3-11.2,6.6-21.6,15-29.3c8.9-8.2,20.6-12.7,32.7-12.7
					h7.3c3,0,5.4,2.4,5.4,5.4s-2.4,5.4-5.4,5.4h-7.3c-9.9,0-19.3,3.8-26.4,10.8c-7,6.9-10.9,16.1-10.9,25.9
					c0,20.2,16.7,36.6,37.3,36.6h7.3c3,0,5.4,2.4,5.4,5.4s-2.4,5.4-5.4,5.4L103.4,154.1L103.4,154.1z M43.4,63.1
					c-0.9,0-1.6,0.8-1.6,1.8v83.6c0,1,0.7,1.8,1.6,1.8s1.6-0.8,1.6-1.8v-40.2h14.1l0.1,1.8c0.8,10.9,5.8,21.1,14,28.6
					c8.2,7.5,18.8,11.7,30,11.7h7.5c0.9,0,1.6-0.7,1.6-1.6s-0.7-1.6-1.6-1.6h-7.3c-22.6,0-41.1-18.1-41.1-40.4
					c0-10.8,4.3-20.9,12.1-28.6c7.8-7.6,18.1-11.8,29-11.8h7.3c0.9,0,1.6-0.7,1.6-1.6s-0.7-1.6-1.6-1.6h-7.3
					c-11.2,0-22,4.2-30.2,11.7c-8.2,7.5-13.2,17.6-14,28.5l-0.1,1.8H45V64.9C45,63.9,44.3,63.1,43.4,63.1L43.4,63.1z"/>
			</g>
			<g>
				<path class="st0" d="M88.6,124.2c-1.8-2.1-2.6-3.2-3.8-5.7c-0.6-1.3-0.5-1.8,0.5-1.4c1.5,0.5,2.3,0.8,3.9,1.2
					c-2.5-8.6-2.5-14.3,0-22.9c-1.6,0.4-2.4,0.7-3.9,1.2c-0.9,0.3-1.1-0.1-0.5-1.4c1.2-2.5,2-3.7,3.8-5.8c0.9-1.1,1.7-1.8,2.5-2.6
					c5.3-4.7,8.9-6.4,16.5-6.9c1.1-0.1,1.4,0.6,0.9,2.3c-0.9,3.2-1.3,4.9-1.9,8.5c-0.3,1.9-1,2.7-2.3,2.8c-2,0.1-2.9,0.1-4.8,0.3
					c-1.8,10-1.8,16.4,0,26.4c1.9,0.2,2.8,0.2,4.8,0.3c1.3,0,1.9,0.9,2.3,2.8c0.6,3.5,1,5.2,1.9,8.4c0.5,1.6,0.2,2.3-0.9,2.3
					c-7.6-0.5-11.2-2.2-16.5-6.9C90.3,126,89.5,125.3,88.6,124.2L88.6,124.2z"/>
				<path class="st0" d="M116.2,133.7c-1.1,0-1.8-0.7-2.1-2.3c-3.1-16.1-3.5-33.3,0-49.4c0.3-1.7,1-2.3,2.1-2.3h4.6
					c1.1,0,1.8,0.4,2.4,1.7c2.9,5.8,4.9,9.1,9,16.2c0-6.8-0.1-10-0.2-15.6c0-1.7,0.4-2.3,1.5-2.3h6.6c1.1,0,1.7,0.7,1.9,2.3
					c2.5,16.2,2.2,33.2,0,49.4c-0.2,1.6-0.9,2.3-1.9,2.3h-6.6c-1.1,0-1.6-0.7-1.5-2.3c0.1-3.2,0.1-5,0.1-8.7
					c-3.3-6.2-5.3-9.6-8.8-16.5c0,11.1,0.2,16.5,0.9,25.2c0.1,1.6-0.3,2.3-1.4,2.3L116.2,133.7L116.2,133.7z"/>
				<path class="st0" d="M158.1,132.9c-7.1,1.8-9.4-2.9-8.3-13.6c1-9.6,1-15.6,0-25.2c-1.1-10.7,1.2-15.3,8.3-13.6
					c4.2,1.1,6.2,2,9.6,4.5c0.9,0.6,1.6,1.4,2.5,2.6c1.7,2.4,2.4,3.7,3.6,6.4c0.6,1.4,0.4,2-0.6,1.7c-3.3-0.9-5.2-1.3-9.1-1.8
					c-2-0.3-2.7,0.9-2.4,3.5c0.9,7.4,0.9,11.7-0.1,19.1c-0.3,2.6,0.2,3.7,1.6,3.5c1.8-0.2,2.7-0.4,4.5-0.7c1.1-4.3,1.4-6.6,1.5-11.4
					c0-1.9,0.5-2.7,1.6-2.7c2.8,0.1,4.1,0.1,6.6,0.2c1,0,1.4,0.7,1.4,2.3c-0.3,7.6-1.9,11.2-6.5,16.6c-0.9,1.1-1.7,1.8-2.5,2.6
					C165.9,130.2,163.4,131.6,158.1,132.9L158.1,132.9z"/>
			</g>
		</g>
	</g>
</g>
</svg>
